<svg width="400" height="500" viewBox="0 0 400 500" fill="none" xmlns="http://www.w3.org/2000/svg">
<path fill-rule="evenodd" clip-rule="evenodd" d="M400 0H0V500H400V0ZM258.192 200.049V399.781H340.518V200.049H258.192ZM263.292 171.933C272.277 179.966 284.298 183.983 299.355 183.983C314.411 183.983 326.432 179.966 335.418 171.933C344.403 163.656 348.896 153.189 348.896 140.531C348.896 128.603 344.403 118.866 335.418 111.319C326.432 103.773 314.411 100 299.355 100C284.298 100 272.277 104.017 263.292 112.05C254.306 120.083 249.814 130.063 249.814 141.991C249.814 153.919 254.306 163.9 263.292 171.933ZM157.59 399.781V128.846H239.916V399.781H157.59ZM51 399.781V144.182H136.969V399.781H51Z" fill="#FFFFFF"/>
</svg>
